<svg width="96" height="96" viewBox="0 0 96 96" fill="none" xmlns="http://www.w3.org/2000/svg">
<path fill-rule="evenodd" clip-rule="evenodd" d="M44 16H36V3H28V16H18C16.8954 16 16 16.8954 16 18V28H3V36H16V44H3V52H16V60H3V68H16V78C16 79.1046 16.8954 80 18 80H28V93H36V80H44V93H52V80H60V93H68V80H78C79.1046 80 80 79.1046 80 78V68H93V60H80V52H93V44H80V36H93V28H80V18C80 16.8954 79.1046 16 78 16H68V3H60V16H52V3H44V16ZM24 72V24H72V72H24ZM40 56V40H56V56H40ZM32 33C32 32.4477 32.4477 32 33 32H63C63.5523 32 64 32.4477 64 33V63C64 63.5523 63.5523 64 63 64H33C32.4477 64 32 63.5523 32 63V33Z" fill="rgb(224, 145, 0)"/>
</svg>
