<svg width="96" height="96" viewBox="0 0 96 96" fill="none" xmlns="http://www.w3.org/2000/svg">
<g clip-path="url(#clip0_233_256)">
<path fill-rule="evenodd" clip-rule="evenodd" d="M48 16C50.2091 16 52 14.2091 52 12C52 9.79086 50.2091 8 48 8C45.7909 8 44 9.79086 44 12C44 14.2091 45.7909 16 48 16ZM59.3172 16C57.6698 20.6608 53.2249 24 48 24C42.7751 24 38.3302 20.6608 36.6828 16L23.3783 16L37.8782 73.3937L38 73.876V74.3735C38 81.1291 35.8249 86.5752 32.2019 90.3595C28.6037 94.1179 23.7953 96 19 96C14.2047 96 9.39626 94.1179 5.79815 90.3595C2.17512 86.5752 0 81.1291 0 74.3735V73.876L0.121849 73.3937L14.6217 16H9C6.79086 16 5 14.2091 5 12C5 9.79086 6.79086 8 9 8L36.6828 8C38.3302 3.33923 42.7751 0 48 0C53.2249 0 57.6698 3.33923 59.3172 8L87 8C89.2091 8 91 9.79086 91 12C91 14.2091 89.2091 16 87 16H81.3783L95.8782 73.3937L96 73.876V74.3735C96 81.1291 93.8249 86.5752 90.2019 90.3595C86.6037 94.1179 81.7953 96 77 96C72.2047 96 67.3963 94.1179 63.7981 90.3595C60.1751 86.5752 58 81.1291 58 74.3735V73.876L58.1218 73.3937L72.6217 16L59.3172 16ZM29.6193 78.3735C29.035 81.2421 27.8353 83.3521 26.4231 84.8272C24.3963 86.9444 21.7047 88 19 88C16.2953 88 13.6037 86.9444 11.5768 84.8272C10.1647 83.3521 8.96499 81.2421 8.3807 78.3735H29.6193ZM9.13623 70.3735L19 31.3304L28.8638 70.3735H9.13623ZM84.4231 84.8272C85.8353 83.3521 87.035 81.2421 87.6193 78.3735H66.3807C66.965 81.2421 68.1647 83.3521 69.5769 84.8272C71.6037 86.9444 74.2953 88 77 88C79.7047 88 82.3963 86.9444 84.4231 84.8272ZM77 31.3304L67.1362 70.3735H86.8638L77 31.3304Z" fill="rgb(224, 145, 0)"/>
</g>
<defs>
<clipPath id="clip0_233_256">
<rect width="96" height="96" fill="white"/>
</clipPath>
</defs>
</svg>
