<svg width="96" height="96" viewBox="0 0 96 96" fill="none" xmlns="http://www.w3.org/2000/svg">
<path fill-rule="evenodd" clip-rule="evenodd" d="M24 8V88H73V8H24ZM18 0C16.8954 0 16 0.895429 16 2V94C16 95.1046 16.8954 96 18 96H79C80.1046 96 81 95.1046 81 94V2C81 0.895431 80.1046 0 79 0H18ZM36 16C36 18.2091 34.2091 20 32 20C29.7909 20 28 18.2091 28 16C28 13.7909 29.7909 12 32 12C34.2091 12 36 13.7909 36 16ZM44 20C46.2091 20 48 18.2091 48 16C48 13.7909 46.2091 12 44 12C41.7909 12 40 13.7909 40 16C40 18.2091 41.7909 20 44 20ZM60 16C60 18.2091 58.2091 20 56 20C53.7909 20 52 18.2091 52 16C52 13.7909 53.7909 12 56 12C58.2091 12 60 13.7909 60 16ZM32 36V44H64V36H32ZM32 76V68H64V76H32ZM32 52V60H64V52H32Z" fill="rgb(224, 145, 0)"/>
</svg>
