<svg width="96" height="96" viewBox="0 0 96 96" fill="none" xmlns="http://www.w3.org/2000/svg">
<g clip-path="url(#clip0_229_43)">
<path fill-rule="evenodd" clip-rule="evenodd" d="M36 0L54 2.09815e-06H60L62 2.44784e-06V13.8823L71.8823 4L73.2965 5.41421L86.0245 18.1421L90.2671 22.3848L91.6813 23.799L81.4803 34L96 34V36V42V54V60V62L81.8008 62L91.6815 71.8807L90.2673 73.2949L86.0246 77.5376L77.5394 86.0229L73.2967 90.2655L71.8825 91.6797L62 81.7972L62 96H60H54H42H36H34L34 81.4788L23.7991 91.6797L22.3849 90.2655L18.1423 86.0229L9.65699 77.5376L5.41435 73.2949L4.00014 71.8807L13.8809 62L5.24537e-06 62L0 60L5.24537e-06 42V36L6.64413e-06 34L14.2013 34L4.00033 23.799L5.41454 22.3848L18.1425 9.65686L22.3851 5.41422L23.7993 4L34 14.2007V2.09815e-06L36 0ZM32.178 23.6924C35.1246 21.7705 38.4422 20.3699 42 19.6214V8H54V19.6214C57.4802 20.3536 60.7305 21.7097 63.6287 23.5674L71.8823 15.3137L80.3676 23.799L72.181 31.9856C74.168 34.9799 75.6138 38.3646 76.3786 42L88 42V54L76.3786 54C75.6302 57.5574 74.2298 60.8747 72.3082 63.8211L80.3678 71.8807L71.8825 80.366L63.8233 72.3068C60.8764 74.2291 57.5583 75.63 54 76.3786L54 88H42L42 76.3786C38.3642 75.6137 34.9792 74.1678 31.9847 72.1804L23.7991 80.366L15.3138 71.8807L23.5668 63.6278C21.7094 60.7299 20.3535 57.4798 19.6214 54L8 54L8 42L19.6214 42C20.3699 38.4421 21.7706 35.1243 23.6927 32.1776L15.314 23.799L23.7993 15.3137L32.178 23.6924ZM58 48C58 53.5229 53.5229 58 48 58C42.4772 58 38 53.5229 38 48C38 42.4772 42.4772 38 48 38C53.5229 38 58 42.4772 58 48ZM66 48C66 57.9411 57.9411 66 48 66C38.0589 66 30 57.9411 30 48C30 38.0589 38.0589 30 48 30C57.9411 30 66 38.0589 66 48Z" fill="rgb(224, 145, 0)"/>
</g>
<defs>
<clipPath id="clip0_229_43">
<rect width="96" height="96" fill="white"/>
</clipPath>
</defs>
</svg>
