<svg width="96" height="96" viewBox="0 0 96 96" fill="none" xmlns="http://www.w3.org/2000/svg">
<path fill-rule="evenodd" clip-rule="evenodd" d="M64 0C66.7614 0 69 2.23858 69 5V23C71.7614 23 74 25.2386 74 28V91.9C74 94.1644 72.1643 96 69.9 96H26.1C23.8355 96 22 94.1642 22 91.9V28C22 25.2386 24.2386 23 27 23H28L28 5C28 2.23857 30.2386 0 33 0H64ZM64 31L64.0044 31H66V88H30V31H33L64 31ZM61 8V23L36 23L36 8L61 8ZM38 11V19H46V11H38ZM51 19V11H59V19H51ZM50 41C50 39.8954 49.1046 39 48 39C46.8954 39 46 39.8954 46 41V67.3981L40.4421 61.6142L40 61.1542V54C40 52.8954 39.1046 52 38 52C36.8954 52 36 52.8954 36 54V62C36 62.3248 36.0774 62.6315 36.2148 62.9026L36.1721 62.9436L36.3456 63.1242C36.4724 63.3104 36.6298 63.4741 36.8105 63.608L37.5579 64.3858L45.5579 72.7111L46 73.1712V77C46 78.1046 46.8954 79 48 79C49.1046 79 50 78.1046 50 77L50 66.1712L50.4421 65.7111L58.4421 57.3858L59.1895 56.608C59.3702 56.4741 59.5276 56.3104 59.6544 56.1242L59.8279 55.9436L59.7852 55.9026C59.9226 55.6315 60 55.3248 60 55V47C60 45.8954 59.1046 45 58 45C56.8954 45 56 45.8954 56 47V54.1542L55.5579 54.6142L50 60.3982V41Z" fill="rgb(224, 145, 0)"/>
</svg>
