<svg width="48" height="48" viewBox="0 0 48 48" fill="none" xmlns="http://www.w3.org/2000/svg">
<g clip-path="url(#clip0_238_2)">
<path fill-rule="evenodd" clip-rule="evenodd" d="M45 24C45 35.598 35.598 45 24 45C12.402 45 3 35.598 3 24C3 12.402 12.402 3 24 3C35.598 3 45 12.402 45 24ZM48 24C48 37.2548 37.2548 48 24 48C10.7452 48 0 37.2548 0 24C0 10.7452 10.7452 0 24 0C37.2548 0 48 10.7452 48 24ZM36.4558 26.9706L39.2842 24.1421L25.1421 10L22.3137 12.8284L31.4852 22L10 22V26L31.7695 26L22.3137 35.4558L25.1421 38.2843L36.4558 26.9706Z" fill="rgb(224, 145, 0)"/>
</g>
<defs>
<clipPath id="clip0_238_2">
<rect width="48" height="48" fill="white"/>
</clipPath>
</defs>
</svg>
