<svg width="48" height="48" viewBox="0 0 48 48" fill="none" xmlns="http://www.w3.org/2000/svg">
<g clip-path="url(#clip0_222_8)">
<path fill-rule="evenodd" clip-rule="evenodd" d="M14.8059 10C16.7282 5.55508 20.4739 3.50017 24.0001 3.5C27.5263 3.49983 31.2722 5.55449 33.1943 10H14.8059ZM10.8321 13C10.6155 14.246 10.5 15.5801 10.5 17C10.5 17.8284 11.1716 18.5 12 18.5C12.8284 18.5 13.5 17.8284 13.5 17C13.5 15.542 13.6338 14.2099 13.8789 13H34.1212C34.3662 14.2099 34.5 15.542 34.5 17C34.5 17.8284 35.1716 18.5 36 18.5C36.8284 18.5 37.5 17.8284 37.5 17C37.5 15.5801 37.3846 14.246 37.168 13H41V45H7V13H10.8321ZM11.6002 10C13.7472 3.80558 18.747 0.500248 23.9999 0.5C29.2532 0.499753 34.2531 3.80491 36.4 10H42C43.1046 10 44 10.8954 44 12V46C44 47.1046 43.1046 48 42 48H6C4.89543 48 4 47.1046 4 46V12C4 10.8954 4.89543 10 6 10H11.6002Z" fill="rgb(9, 9, 9)"/>
</g>
<defs>
<clipPath id="clip0_222_8">
<rect width="48" height="48" fill="none"/>
</clipPath>
</defs>
</svg>
