<svg width="48" height="48" viewBox="0 0 48 48" fill="none" xmlns="http://www.w3.org/2000/svg">
<path fill-rule="evenodd" clip-rule="evenodd" d="M43.0919 7.73648C43.873 6.95543 43.873 5.6891 43.0919 4.90805C42.3109 4.127 41.0446 4.127 40.2635 4.90805L24 21.1716L7.73661 4.90818C6.95556 4.12713 5.68923 4.12713 4.90818 4.90818C4.12713 5.68923 4.12714 6.95556 4.90818 7.73661L21.1716 24L4.90818 40.2634C4.12714 41.0444 4.12713 42.3108 4.90818 43.0918C5.68923 43.8729 6.95556 43.8729 7.73661 43.0918L24 26.8284L40.2635 43.0919C41.0446 43.873 42.3109 43.873 43.0919 43.0919C43.873 42.3109 43.873 41.0446 43.0919 40.2635L26.8284 24L43.0919 7.73648Z" fill="white"/>
</svg>
