<svg width="48" height="48" viewBox="0 0 48 48" fill="none" xmlns="http://www.w3.org/2000/svg">
<g clip-path="url(#clip0_222_5)">
<path d="M22.7077 9.84722L24.0154 12.0665L25.3001 9.83383C27.5802 5.87143 30.0696 3.58764 32.4127 2.48675C34.7294 1.39829 36.998 1.41735 39.0195 2.22776C43.127 3.87444 46.5 8.96327 46.5 15.4743C46.5 18.5585 45.1592 22.0521 42.9681 25.6577C40.7923 29.2382 37.8679 32.7834 34.9066 35.9365C31.9506 39.084 28.9894 41.8074 26.7647 43.7456C25.6534 44.7137 24.7284 45.4837 24.083 46.0102C24.0548 46.0332 24.0271 46.0558 24 46.0779C23.9729 46.0558 23.9452 46.0332 23.917 46.0102C23.2716 45.4837 22.3466 44.7137 21.2353 43.7456C19.0106 41.8074 16.0494 39.084 13.0934 35.9365C10.1321 32.7834 7.20772 29.2382 5.03187 25.6577C2.84076 22.0521 1.5 18.5585 1.5 15.4743C1.5 8.93568 4.79055 3.77468 8.83809 2.09946C10.8241 1.2775 13.072 1.24605 15.4072 2.34836C17.7734 3.46527 20.319 5.79342 22.7077 9.84722Z" stroke="white" stroke-width="3"/>
</g>
<defs>
<clipPath id="clip0_222_5">
<rect width="48" height="48" fill="white"/>
</clipPath>
</defs>
</svg>
