<svg width="48" height="48" viewBox="0 0 48 48" fill="none" xmlns="http://www.w3.org/2000/svg">
<g clip-path="url(#clip0_222_5)">
<path d="M24.111 46.056C24.0873 46.0748 24.064 46.0932 24.0411 46.1113C24.0009 46.0786 23.9596 46.045 23.917 46.0102C23.2716 45.4837 22.3466 44.7137 21.2353 43.7456C19.0106 41.8074 16.0494 39.084 13.0934 35.9365C10.1321 32.7834 7.20772 29.2382 5.03187 25.6577C2.84076 22.0521 1.5 18.5585 1.5 15.4743C1.5 8.93568 4.79055 3.77468 8.83809 2.09946C10.8241 1.2775 13.072 1.24605 15.4072 2.34836C17.7734 3.46527 20.319 5.79342 22.7077 9.84722L24.0154 12.0665L25.3001 9.83383C27.5802 5.87144 30.0696 3.58764 32.4127 2.48675C34.7294 1.39829 36.998 1.41735 39.0195 2.22776C43.127 3.87444 46.5 8.96327 46.5 15.4743C46.5 18.5601 45.1604 22.0676 42.9713 25.6903C40.7977 29.2874 37.8762 32.8521 34.9178 36.0174C31.9645 39.1772 29.0057 41.9057 26.7833 43.8308C25.6726 44.7928 24.7507 45.5499 24.111 46.056Z" stroke="rgb(9, 9, 9)" stroke-width="3"/>
</g>
<defs>
<clipPath id="clip0_222_5">
<rect width="48" height="48" fill="white"/>
</clipPath>
</defs>
</svg>
