<svg width="48" height="48" viewBox="0 0 48 48" fill="none" xmlns="http://www.w3.org/2000/svg">
<path fill-rule="evenodd" clip-rule="evenodd" d="M17.1646 4.28108L1.2931 20.1526C0.121532 21.3242 0.121529 23.2237 1.2931 24.3953L8.36417 31.4663C9.53574 32.6379 11.4352 32.6379 12.6068 31.4663L18.2638 25.8093L37.3558 44.9013C38.5273 46.0729 40.4268 46.0729 41.5984 44.9013L45.841 40.6586C47.0126 39.4871 47.0126 37.5876 45.841 36.416L26.7491 17.324L32.8978 11.1754C34.5639 9.50921 33.747 6.66072 31.451 6.13088L19.9605 3.47923C18.9527 3.24664 17.8961 3.54967 17.1646 4.28108ZM10.4855 27.9308L4.82864 22.2739L19.6012 7.50142L28.7935 9.62274L10.4855 27.9308ZM39.4771 41.3658L21.0923 22.981L23.9207 20.1525L42.3055 38.5373L39.4771 41.3658Z" fill="white"/>
</svg>
