<svg width="48" height="48" viewBox="0 0 48 48" fill="none" xmlns="http://www.w3.org/2000/svg">
<g clip-path="url(#clip0_510_76)">
<path fill-rule="evenodd" clip-rule="evenodd" d="M5 5H43V30H29H24C23.1126 30 22.3331 30.4624 21.8895 31.1594C21.5497 31.6806 20.9664 32.7541 20.35 33.9073C19.9749 34.6088 19.5519 35.4082 19.1157 36.2324L19.1153 36.2331C18.7811 36.8646 18.4392 37.5107 18.1053 38.1385C17.6709 38.9552 17.2461 39.7482 16.8547 40.4666C16.3757 39.7111 15.8507 38.8679 15.3151 37.9997C14.6059 36.8503 13.8678 35.64 13.2043 34.552C12.2444 32.978 11.4405 31.6598 11.106 31.1523C10.6616 30.4592 9.88441 30 9 30H8H5V5ZM29 35H25.4426C25.2502 35.3511 25.0212 35.7748 24.7594 36.2646C24.3855 36.9641 23.975 37.7398 23.5465 38.5495L23.545 38.5523L23.5437 38.5548C23.2103 39.1848 22.8661 39.8353 22.5197 40.4865C21.7386 41.9549 20.9575 43.4062 20.3357 44.4964C20.0284 45.0351 19.7365 45.5273 19.4906 45.9003C19.3736 46.0779 19.2258 46.2919 19.0642 46.4842C18.9888 46.5739 18.8494 46.733 18.659 46.8912C18.5631 46.9709 18.3995 47.0966 18.177 47.2119C17.973 47.3175 17.5572 47.5 17 47.5C16.4537 47.5 16.0477 47.3238 15.8636 47.2328C15.6547 47.1294 15.4988 47.0173 15.4072 46.9466C15.2248 46.8056 15.0864 46.6628 15.0086 46.5792C14.8425 46.4007 14.684 46.1983 14.5529 46.0234C14.2792 45.6581 13.9473 45.1721 13.5925 44.6338C12.8752 43.5458 11.968 42.097 11.0599 40.6253C10.2626 39.333 9.47496 38.0409 8.79815 36.9305L8.79708 36.9288L8.797 36.9286L8.79678 36.9283L8.79623 36.9274L8.79247 36.9212C8.34187 36.182 7.94059 35.5237 7.61852 35H5C2.23858 35 0 32.7614 0 30V5C0 2.23858 2.23857 0 5 0H43C45.7614 0 48 2.23858 48 5V30C48 32.7614 45.7614 35 43 35H29ZM9 12L39 12V9L9 9V12ZM39 19L9 19V16L39 16V19ZM9 26L39 26V23L9 23V26Z" fill="white"/>
</g>
<defs>
<clipPath id="clip0_510_76">
<rect width="48" height="48" fill="white" transform="matrix(-1 0 0 1 48 0)"/>
</clipPath>
</defs>
</svg>
