<svg width="48" height="48" viewBox="0 0 48 48" fill="none" xmlns="http://www.w3.org/2000/svg">
<g clip-path="url(#clip0_310_20)">
<path fill-rule="evenodd" clip-rule="evenodd" d="M4.24256 21.123C3.46151 20.3419 2.19518 20.3419 1.41413 21.123C0.633083 21.904 0.633083 23.1704 1.41413 23.9514L16.2634 38.8006C17.0444 39.5817 18.3108 39.5817 19.0918 38.8006C19.2145 38.6779 19.318 38.5432 19.4022 38.4002C19.5442 38.3163 19.678 38.2134 19.8 38.0914L46.8 11.0914C47.5811 10.3103 47.5811 9.04399 46.8 8.26294C46.019 7.48189 44.7527 7.48189 43.9716 8.26294L17.6771 34.5575L4.24256 21.123Z" fill="white"/>
</g>
<defs>
<clipPath id="clip0_310_20">
<rect width="48" height="48" fill="white" transform="matrix(-1 0 0 1 48 0)"/>
</clipPath>
</defs>
</svg>
