<svg width="48" height="48" viewBox="0 0 48 48" fill="none" xmlns="http://www.w3.org/2000/svg">
<g clip-path="url(#clip0_222_41)">
<path fill-rule="evenodd" clip-rule="evenodd" d="M24 9C25.6569 9 27 7.65685 27 6C27 4.34315 25.6569 3 24 3C22.3431 3 21 4.34315 21 6C21 7.65685 22.3431 9 24 9ZM29.6586 8C28.8349 10.3304 26.6124 12 24 12C21.3876 12 19.1651 10.3304 18.3414 8H12.5304L19.4564 36.1118L19.5 36.2885V36.4706C19.5 39.9713 18.3913 42.7409 16.5905 44.6476C14.7977 46.5458 12.3987 47.5 10 47.5C7.60125 47.5 5.20228 46.5458 3.40948 44.6476C1.60875 42.7409 0.5 39.9713 0.5 36.4706V36.2805L0.547413 36.0964C3.30245 25.4005 6.05831 14.0307 7.50438 8H6C4.89543 8 4 7.10457 4 6C4 4.89543 4.89543 4 6 4H18.3414C19.1651 1.66962 21.3876 0 24 0C26.6124 0 28.8349 1.66962 29.6586 4H42C43.1046 4 44 4.89543 44 6C44 7.10457 43.1046 8 42 8H40.5304L47.4564 36.1118L47.5 36.2885V36.4706C47.5 39.9713 46.3913 42.7409 44.5905 44.6476C42.7977 46.5458 40.3987 47.5 38 47.5C35.6013 47.5 33.2023 46.5458 31.4095 44.6476C29.6088 42.7409 28.5 39.9713 28.5 36.4706V36.2805L28.5474 36.0964C31.3024 25.4005 34.0583 14.0307 35.5044 8H29.6586ZM10.0225 10.3614C8.59879 16.2772 6.29447 25.7408 3.93362 34.9706H3.95837H3.99833H4.03833H4.07838H4.11849H4.15864H4.19883H4.23907H4.27936H4.3197H4.36007H4.4005H4.44096H4.48147H4.52202H4.56261H4.60325H4.64392H4.68464H4.72539H4.76618H4.80701H4.84788H4.88878H4.92972H4.9707H5.01171H5.05276H5.09384H5.13495H5.1761H5.21728H5.25849H5.29973H5.341H5.3823H5.42363H5.46499H5.50638H5.54779H5.58924H5.6307H5.6722H5.71372H5.75526H5.79683H5.83842H5.88003H5.92166H5.96332H6.005H6.0467H6.08841H6.13015H6.17191H6.21368H6.25547H6.29728H6.3391H6.38094H6.4228H6.46466H6.50655H6.54844H6.59035H6.63227H6.6742H6.71615H6.7581H6.80006H6.84203H6.88401H6.926H6.968H7.01H7.05201H7.09402H7.13604H7.17806H7.22009H7.26212H7.30415H7.34619H7.38822H7.43026H7.47229H7.51433H7.55637H7.5984H7.64043H7.68246H7.72449H7.76651H7.80853H7.85054H7.89254H7.93454H7.97654H8.01852H8.0605H8.10247H8.14443H8.18638H8.22831H8.27024H8.31216H8.35406H8.39595H8.43783H8.47969H8.52154H8.56338H8.60519H8.647H8.68878H8.73055H8.7723H8.81403H8.85574H8.89743H8.9391H8.98075H9.02237H9.06398H9.10556H9.14712H9.18865H9.23016H9.27165H9.31311H9.35454H9.39594H9.43732H9.47867H9.51999H9.56128H9.60254H9.64377H9.68497H9.72614H9.76727H9.80837H9.84944H9.89048H9.93148H9.97244H10.0134H10.0543H10.0951H10.1359H10.1767H10.2174H10.2581H10.2988H10.3394H10.38H10.4205H10.461H10.5015H10.5419H10.5823H10.6226H10.6628H10.7031H10.7432H10.7834H10.8235H10.8635H10.9035H10.9434H10.9833H11.0231H11.0629H11.1027H11.1423H11.182H11.2215H11.2611H11.3005H11.3399H11.3793H11.4186H11.4578H11.497H11.5361H11.5752H11.6142H11.6531H11.692H11.7308H11.7696H11.8083H11.8469H11.8855H11.924H11.9624H12.0008H12.0391H12.0774H12.1155H12.1537H12.1917H12.2297H12.2676H12.3054H12.3431H12.3808H12.4184H12.456H12.4935H12.5309H12.5682H12.6054H12.6426H12.6797H12.7167H12.7536H12.7905H12.8273H12.864H12.9006H12.9371H12.9736H13.01H13.0463H13.0825H13.1186H13.1547H13.1906H13.2265H13.2623H13.298H13.3336H13.3692H13.4046H13.44H13.4752H13.5104H13.5455H13.5805H13.6154H13.6502H13.6849H13.7195H13.7541H13.7885H13.8228H13.8571H13.8912H13.9253H13.9592H13.9931H14.0269H14.0605H14.0941H14.1275H14.1609H14.1941H14.2273H14.2603H14.2933H14.3261H14.3589H14.3915H14.424H14.4564H14.4887H14.5209H14.553H14.585H14.6169H14.6487H14.6803H14.7119H14.7433H14.7746H14.8058H14.8369H14.8679H14.8988H14.9295H14.9602H14.9907H15.0211H15.0514H15.0815H15.1116H15.1415H15.1713H15.201H15.2306H15.26H15.2893H15.3185H15.3476H15.3765H15.4054H15.4341H15.4626H15.4911H15.5194H15.5476H15.5757H15.6036H15.6314H15.6591H15.6866H15.714H15.7413H15.7684H15.7955H15.8223H15.8491H15.8757H15.9022H15.9285H15.9547H15.9808H16.0067H16.0325H16.0581H16.0837H16.0856L10.0225 10.3614ZM31.9336 34.9706C34.2945 25.7408 36.5988 16.2772 38.0225 10.3614L44.0856 34.9706H44.0837H44.0582H44.0325H44.0067H43.9808H43.9547H43.9285H43.9022H43.8757H43.8491H43.8223H43.7955H43.7684H43.7413H43.714H43.6866H43.6591H43.6314H43.6036H43.5757H43.5476H43.5194H43.4911H43.4626H43.4341H43.4054H43.3765H43.3476H43.3185H43.2893H43.26H43.2306H43.201H43.1713H43.1415H43.1116H43.0815H43.0514H43.0211H42.9907H42.9602H42.9295H42.8988H42.8679H42.8369H42.8058H42.7746H42.7433H42.7119H42.6803H42.6487H42.6169H42.585H42.553H42.5209H42.4887H42.4564H42.424H42.3915H42.3589H42.3261H42.2933H42.2603H42.2273H42.1941H42.1609H42.1275H42.0941H42.0605H42.0269H41.9931H41.9592H41.9253H41.8912H41.8571H41.8228H41.7885H41.7541H41.7195H41.6849H41.6502H41.6154H41.5805H41.5455H41.5104H41.4752H41.44H41.4046H41.3692H41.3336H41.298H41.2623H41.2265H41.1906H41.1547H41.1186H41.0825H41.0463H41.01H40.9736H40.9371H40.9006H40.864H40.8273H40.7905H40.7536H40.7167H40.6797H40.6426H40.6054H40.5682H40.5308H40.4935H40.456H40.4184H40.3808H40.3431H40.3054H40.2676H40.2297H40.1917H40.1537H40.1155H40.0774H40.0391H40.0008H39.9624H39.924H39.8855H39.8469H39.8083H39.7696H39.7308H39.692H39.6531H39.6142H39.5752H39.5361H39.497H39.4578H39.4186H39.3793H39.3399H39.3005H39.2611H39.2215H39.182H39.1423H39.1027H39.0629H39.0231H38.9833H38.9434H38.9035H38.8635H38.8235H38.7834H38.7432H38.7031H38.6628H38.6226H38.5823H38.5419H38.5015H38.461H38.4205H38.38H38.3394H38.2988H38.2581H38.2174H38.1767H38.1359H38.0951H38.0543H38.0134H37.9724H37.9315H37.8905H37.8494H37.8084H37.7673H37.7261H37.685H37.6438H37.6025H37.5613H37.52H37.4787H37.4373H37.3959H37.3545H37.3131H37.2716H37.2302H37.1887H37.1471H37.1056H37.064H37.0224H36.9807H36.9391H36.8974H36.8557H36.814H36.7723H36.7305H36.6888H36.647H36.6052H36.5634H36.5215H36.4797H36.4378H36.396H36.3541H36.3122H36.2702H36.2283H36.1864H36.1444H36.1025H36.0605H36.0185H35.9765H35.9345H35.8925H35.8505H35.8085H35.7665H35.7245H35.6825H35.6404H35.5984H35.5564H35.5143H35.4723H35.4303H35.3882H35.3462H35.3042H35.2621H35.2201H35.1781H35.136H35.094H35.052H35.01H34.968H34.926H34.884H34.842H34.8001H34.7581H34.7161H34.6742H34.6323H34.5904H34.5484H34.5065H34.4647H34.4228H34.3809H34.3391H34.2973H34.2555H34.2137H34.1719H34.1301H34.0884H34.0467H34.005H33.9633H33.9217H33.88H33.8384H33.7968H33.7553H33.7137H33.6722H33.6307H33.5892H33.5478H33.5064H33.465H33.4236H33.3823H33.341H33.2997H33.2585H33.2173H33.1761H33.135H33.0938H33.0528H33.0117H32.9707H32.9297H32.8888H32.8479H32.807H32.7662H32.7254H32.6846H32.6439H32.6032H32.5626H32.522H32.4815H32.441H32.4005H32.3601H32.3197H32.2794H32.2391H32.1988H32.1586H32.1185H32.0784H32.0383H31.9983H31.9584H31.9336Z" fill="white"/>
</g>
<defs>
<clipPath id="clip0_222_41">
<rect width="48" height="48" fill="white"/>
</clipPath>
</defs>
</svg>
